<svg width="24" height="24" viewBox="0 0 24 24" fill="none" xmlns="http://www.w3.org/2000/svg">
<path d="M0 6C0 2.68629 2.68629 0 6 0H18C21.3137 0 24 2.68629 24 6V18C24 21.3137 21.3137 24 18 24H6C2.68629 24 0 21.3137 0 18V6Z" fill="#AA285D"/>
<path d="M19 11.7726C15.18 12.3367 7.69621 14.1774 6.39965 18.2745C5.32858 21.6589 15.3888 20.412 16.3756 11.4164C16.5271 8.74441 13.6637 6.6959 8.24005 11.5945C9.90202 9.546 12.8764 5.18178 11.0217 4.10426C8.67729 3.25408 3.67572 7.66022 5.32858 15.2462" stroke="white" stroke-width="1.5" stroke-linecap="round" stroke-linejoin="round"/>
</svg>
