<svg width="24" height="24" viewBox="0 0 24 24" fill="none" xmlns="http://www.w3.org/2000/svg">
<path d="M0 6C0 2.68629 2.68629 0 6 0H18C21.3137 0 24 2.68629 24 6V18C24 21.3137 21.3137 24 18 24H6C2.68629 24 0 21.3137 0 18V6Z" fill="#4920F5"/>
<path d="M0 8.13632L8 3.5V6.59104L0 11.2274L0 8.13632Z" fill="white"/>
<path d="M0 12.7726L16 3.5V6.59104L0 15.8637L0 12.7726Z" fill="white"/>
<path d="M0 20.5L0 17.409L24 3.5V6.59104L0 20.5Z" fill="white"/>
<path d="M24 11.2273L8 20.4999V17.4089L24 8.13626V11.2273Z" fill="white"/>
<path d="M16 20.5001L24 15.8638V12.7727L16 17.409V20.5001Z" fill="white"/>
</svg>
